
The Wild Bunch - Dir. Cut 1969 BluRay 1080p ac3 x264-LoNeWoLf

Encoded by Tequila-Bob a.k.a. bobnjeff a.k.a.LoNeWoLf

Source - NTSC BluRay Disc.

Movie has been tested and is DXVA Compliant


The Wild Bunch (1969) 
  134 min  -  Genres:Action | Western   Release Date:18 June 1969 (USA) 
  8.1/10 X  Users: 8.1/10 (32,882 votes) 247 reviews | Critics: 105 reviews 
Storyline
In the Wild Bunch the movie opens with a group of aging outlaw's final score, a bank robbery. The event concludes with a violent and overtly bloody shootout that would generally mark the finale of a movie. This is correct in that it marks the finale of an era, for the characters and the world they live in. They simply can no longer keep up, the times are changing, technology advancing, and they're style of life is getting left behind in the dust that they spent so long galloping through. They abandon their careers for the simpler life of retirement. They enjoy this time, they live their fantasies. During this time the law is always on their tracks, bounty hunters. The further into their fantasy they get, the closer their demise seems to get. When one of their own is captured they are faced with the choice of escape or what is certainly a suicide mission to attempt and free their fallen behind comrade

Director: Sam Peckinpah
Writers: Walon Green (screenplay), Sam Peckinpah (screenplay), and 2 more credits » 
Stars:William Holden, Ernest Borgnine and Robert Ryan
 
http://www.imdb.com/title/tt0065214/

Rated "R" on appeal for Graphic Western Violence and Some Sensuality/Nudity


Cast
Cast overview, first billed only: 
  William Holden  ...  Pike Bishop  
  Ernest Borgnine  ...  Dutch Engstrom  
  Robert Ryan  ...  Deke Thornton  
  Edmond O'Brien  ...  Freddie Sykes  
  Warren Oates  ...  Lyle Gorch  
  Jaime Sánchez  ...  Angel (as Jaime Sanchez)  
  Ben Johnson  ...  Tector Gorch  
  Emilio Fernández  ...  Gen. Mapache (as Emilio Fernandez)  
  Strother Martin  ...  Coffer  
  L.Q. Jones  ...  T.C  
  Albert Dekker  ...  Pat Harrigan  
  Bo Hopkins  ...  Clarence 'Crazy' Lee  
  Dub Taylor  ...  Rev. Wainscoat  
  Paul Harper  ...  Ross  
  Jorge Russek  ...  Maj. Zamorra  



[img]http://torrent-stats.info/5e32/6bddf1d0.png[/img]

See the full size 1920x784 PNG files at the link below
 
http://s1015.photobucket.com/albums/af279/tequila-bob/The%20Wild%20Bunch%20Dir%20Cut%201969/





Format : Matroska 
File size : 10.3 GiB 
Duration : 2h 24mn 
Overall bit rate : 10.2 Mbps 
Encoded date : UTC 2011-01-24 02:29:18 
Writing application : mkvmerge v4.4.0 ('Die Wiederkehr') built on Oct 31 2010 21:52:48 
Writing library : libebml v1.0.0 + libmatroska v1.0.0 

Video 
ID : 1 
Format : AVC 
Format/Info : Advanced Video Codec 
Format profile : High@L4.1 
Format settings, CABAC : Yes 
Format settings, ReFrames : 4 frames 
Muxing mode : Container profile=Unknown@4.1 
Codec ID : V_MPEG4/ISO/AVC 
Duration : 2h 24mn 
Bit rate : 9 499 Kbps 
Width : 1 920 pixels 
Height : 784 pixels 
Display aspect ratio : 2.40:1 
Frame rate : 23.976 fps 
Color space : YUV 
Chroma subsampling : 4:2:0 
Bit depth : 8 bits 
Scan type : Progressive 
Bits/(Pixel*Frame) : 0.263 
Stream size : 9.44 GiB (92%) 
Writing library : x264 core 112 r1867 22bfd31 
Encoding settings : cabac=1 / ref=5 / deblock=1:-3:-3 / analyse=0x3:0x113 / me=umh / subme=9 / psy=1 / psy_rd=1.00:0.08 / mixed_ref=1 / me_range=32 / chroma_me=1 / trellis=1 / 8x8dct=1 / cqm=0 / deadzone=21,11 / fast_pskip=0 / chroma_qp_offset=-3 / threads=6 / sliced_threads=0 / nr=0 / decimate=1 / interlaced=0 / constrained_intra=0 / bframes=6 / b_pyramid=1 / b_adapt=2 / b_bias=0 / direct=1 / weightb=1 / open_gop=2 / weightp=2 / keyint=250 / keyint_min=23 / scenecut=40 / intra_refresh=0 / rc_lookahead=100 / rc=2pass / mbtree=1 / bitrate=9499 / ratetol=1.0 / qcomp=0.60 / qpmin=10 / qpmax=51 / qpstep=4 / cplxblur=20.0 / qblur=0.5 / vbv_maxrate=50000 / vbv_bufsize=50000 / nal_hrd=none / ip_ratio=1.40 / aq=1:1.50 
Language : English 

Audio 
ID : 2 
Format : AC-3 
Format/Info : Audio Coding 3 
Mode extension : CM (complete main) 
Codec ID : A_AC3 
Duration : 2h 24mn 
Bit rate mode : Constant 
Bit rate : 640 Kbps 
Channel(s) : 6 channels 
Channel positions : Front: L C R, Side: L R, LFE 
Sampling rate : 48.0 KHz 
Bit depth : 16 bits 
Stream size : 663 MiB (6%) 
Title : 3/2+1 
Language : English 

Text 
ID : 3 
Format : PGS 
Codec ID : S_HDMV/PGS 
Codec ID/Info : The same subtitle format used on BDs/HD-DVDs 
Language : English, French, Spanish 


Menu & 45 Chapters


See the full size 1920x784 PNG files at the link below
 
http://s1015.photobucket.com/albums/af279/tequila-bob/The%20Wild%20Bunch%20Dir%20Cut%201969/

